<?xml version="1.0" standalone="no"?>
<!DOCTYPE svg PUBLIC "-//W3C//DTD SVG 20010904//EN"
 "http://www.w3.org/TR/2001/REC-SVG-20010904/DTD/svg10.dtd">
<svg version="1.0" xmlns="http://www.w3.org/2000/svg"
 width="80.000000pt" height="80.000000pt" viewBox="0 0 80.000000 80.000000"
 preserveAspectRatio="xMidYMid meet">
<metadata>
Created by potrace 1.14, written by Peter Selinger 2001-2017
</metadata>
<g transform="translate(0.000000,80.000000) scale(0.100000,-0.100000)"
fill="#000000" stroke="none">
<path d="M125 712 c-85 -3 -105 -12 -105 -46 0 -34 20 -46 76 -46 l51 0 7 -62
c4 -35 9 -77 12 -95 6 -31 5 -32 -37 -35 -32 -2 -45 -8 -47 -20 -3 -14 7 -17
60 -20 55 -3 63 -5 63 -23 0 -18 -8 -20 -90 -25 -82 -5 -90 -7 -90 -25 0 -18
8 -20 100 -23 55 -1 104 -7 110 -13 16 -16 -23 -39 -66 -39 -41 0 -56 -12 -36
-27 13 -10 429 -17 458 -8 14 5 37 49 84 160 7 17 27 64 45 107 17 42 33 91
33 110 l2 33 -111 3 -112 3 -4 -31 c-4 -27 -2 -30 23 -30 33 0 41 -20 31 -69
-10 -45 -30 -51 -38 -12 -5 26 -11 31 -34 31 -26 0 -27 -2 -28 -52 0 -29 2
-48 4 -41 6 13 62 7 78 -8 6 -5 9 -30 8 -56 -5 -86 0 -83 -123 -83 -122 0
-129 4 -112 63 11 38 36 42 43 7 4 -22 10 -25 45 -24 106 1 107 2 103 32 -2
21 -8 27 -28 27 -18 0 -25 -5 -25 -20 0 -13 -8 -21 -22 -23 -22 -3 -23 -1 -17
60 3 35 7 75 9 91 4 24 2 27 -25 27 -27 0 -30 -3 -30 -30 0 -23 4 -30 20 -30
15 0 20 -7 20 -30 l0 -29 -45 14 c-45 13 -45 13 -66 -16 -20 -28 -22 -29 -35
-12 -7 10 -14 35 -14 56 0 20 -4 37 -9 37 -5 0 -14 52 -21 115 -7 63 -17 118
-24 122 -6 5 -47 7 -91 5z m335 -467 c-12 -15 -30 -12 -30 6 0 5 10 9 21 9 18
0 19 -2 9 -15z"/>
<path d="M292 603 c-9 -23 -8 -140 1 -176 8 -29 25 -32 38 -6 4 8 11 41 16 74
l8 60 48 3 c39 3 47 6 47 23 0 25 -36 39 -101 39 -38 0 -51 -4 -57 -17z"/>
<path d="M502 580 c0 -14 2 -19 5 -12 2 6 2 18 0 25 -3 6 -5 1 -5 -13z"/>
<path d="M302 173 c-25 -10 -34 -53 -17 -79 19 -29 36 -30 58 -6 23 25 22 69
-2 82 -11 5 -21 10 -23 9 -2 0 -9 -3 -16 -6z"/>
<path d="M457 162 c-29 -32 -17 -92 19 -92 36 0 59 71 32 98 -17 17 -32 15
-51 -6z"/>
</g>
</svg>
